# xmcd
#
# Track frame offsets:
# 150
# 14735
# 27393
# 41438
# 52200
# 65778
# 80373
# 93015
# 107178
# 117520
# 132065
# 145928
# 158438
# 171455
# 185868
# 199148
# 213700
# 224570
# 241345
# 254405
#
# Disc length: 3503 seconds
#
#
# Revision: 3
# Processed by: cddbd v1.5.1PL2 Copyright (c) Steve Scherf et al.
# Submitted via: FreeRIP 2.945 
#
DISCID=370dad14
DTITLE=Mel Street - Greatest Hits
DYEAR=1992
DGENRE=Country
TTITLE0=Borrowed Angel
TTITLE1=The Town Where You Live
TTITLE2=Bad, Bad Leroy Brown
TTITLE3=I've Hurt Her More Than She Loves Me
TTITLE4=Lust Affair
TTITLE5=I Met A Friend Of Yours Today
TTITLE6=Big Blue Diamond
TTITLE7=Forbidden Angel
TTITLE8=Country Pride
TTITLE9=Don't Lead Me On
TTITLE10=Smokey Mountain Memories
TTITLE11=Rub It In
TTITLE12=Virginia's Song
TTITLE13=Don't Be Angry
TTITLE14=Even If I Have To Steal
TTITLE15=You Make Me Feel More Like A Man
TTITLE16=Today I Started Lovin' You Again
TTITLE17=Love Me Tender
TTITLE18=Lovin' On Back Streets
TTITLE19=Let's Put Out The Fire
EXTD=Highland Music
EXTT0=
EXTT1=
EXTT2=
EXTT3=
EXTT4=
EXTT5=
EXTT6=
EXTT7=
EXTT8=
EXTT9=
EXTT10=
EXTT11=
EXTT12=
EXTT13=
EXTT14=
EXTT15=
EXTT16=
EXTT17=
EXTT18=
EXTT19=
PLAYORDER=
